<svg width="20" height="16" viewBox="0 0 20 16" fill="none" xmlns="http://www.w3.org/2000/svg">
<path fill-rule="evenodd" clip-rule="evenodd" d="M3.20711 0.792922L2.5 0.0858154L1.08579 1.50003L1.79289 2.20714L3.4827 3.89694C1.51776 5.36291 0 7.03251 0 8.00003C0 10 6.48546 15 10 15C11.0092 15 12.2633 14.5878 13.5385 13.9527L14.7929 15.2071L15.5 15.9142L16.9142 14.5L16.2071 13.7929L3.20711 0.792922ZM12.034 12.4482L11.3517 11.7659C10.9294 11.9175 10.4744 12 10 12C7.79086 12 6 10.2092 6 8.00003C6 7.52566 6.08257 7.07058 6.23413 6.64838L4.91338 5.32762C4.89525 5.34072 4.87714 5.35385 4.85907 5.36701C3.91373 6.05514 3.11011 6.7724 2.56679 7.38708C2.3464 7.63642 2.19217 7.84271 2.09204 8.00003C2.19217 8.15734 2.3464 8.36364 2.56679 8.61298C3.11011 9.22766 3.91373 9.94492 4.85907 10.6331C5.80027 11.3182 6.82352 11.9318 7.78101 12.3662C8.77544 12.8173 9.53578 13 10 13C10.435 13 11.13 12.8395 12.034 12.4482ZM9.53033 9.94457C8.803 9.76953 8.2305 9.19703 8.05546 8.4697L9.53033 9.94457ZM8.64835 4.23416L10.4697 6.05549C11.197 6.23053 11.7695 6.80303 11.9445 7.53036L13.7659 9.35168C13.9174 8.92948 14 8.4744 14 8.00003C14 5.79089 12.2091 4.00003 10 4.00003C9.52563 4.00003 9.07055 4.0826 8.64835 4.23416ZM15.1409 10.6331L15.0866 10.6724L16.5173 12.1031C18.4822 10.6371 20 8.96755 20 8.00003C20 6.00003 13.5145 1.00003 10 1.00003C8.99084 1.00003 7.73673 1.41227 6.46155 2.04736L7.96605 3.55186C8.87001 3.16051 9.56501 3.00003 10 3.00003C10.4642 3.00003 11.2246 3.1828 12.219 3.6339C13.1765 4.06824 14.1997 4.6819 15.1409 5.36701C16.0863 6.05514 16.8899 6.7724 17.4332 7.38708C17.6536 7.63642 17.8078 7.84272 17.908 8.00003C17.8078 8.15735 17.6536 8.36364 17.4332 8.61298C16.8899 9.22766 16.0863 9.94492 15.1409 10.6331ZM18.028 7.7793C18.0289 7.77695 18.0292 7.7758 18.0291 7.77582C18.029 7.77585 18.028 7.77848 18.0264 7.78363C18.027 7.7819 18.0276 7.78045 18.028 7.7793ZM1.97088 7.77582C1.971 7.77585 1.97203 7.77848 1.97364 7.78364C1.97158 7.77837 1.97077 7.77579 1.97088 7.77582ZM1.97088 8.22424C1.97077 8.22427 1.97158 8.22169 1.97364 8.21642C1.97203 8.22158 1.971 8.22421 1.97088 8.22424ZM18.0286 8.22255L18.0264 8.21642L18.0285 8.22282L18.0291 8.22424C18.0291 8.22424 18.0291 8.22417 18.0291 8.22403L18.0286 8.22255Z" fill="#8C8E93"/>
<path fill-rule="evenodd" clip-rule="evenodd" d="M3.20711 0.792922L2.5 0.0858154L1.08579 1.50003L1.79289 2.20714L3.4827 3.89694C1.51776 5.36291 0 7.03251 0 8.00003C0 10 6.48546 15 10 15C11.0092 15 12.2633 14.5878 13.5385 13.9527L14.7929 15.2071L15.5 15.9142L16.9142 14.5L16.2071 13.7929L3.20711 0.792922ZM12.034 12.4482L11.3517 11.7659C10.9294 11.9175 10.4744 12 10 12C7.79086 12 6 10.2092 6 8.00003C6 7.52566 6.08257 7.07058 6.23413 6.64838L4.91338 5.32762C4.89525 5.34072 4.87714 5.35385 4.85907 5.36701C3.91373 6.05514 3.11011 6.7724 2.56679 7.38708C2.3464 7.63642 2.19217 7.84271 2.09204 8.00003C2.19217 8.15734 2.3464 8.36364 2.56679 8.61298C3.11011 9.22766 3.91373 9.94492 4.85907 10.6331C5.80027 11.3182 6.82352 11.9318 7.78101 12.3662C8.77544 12.8173 9.53578 13 10 13C10.435 13 11.13 12.8395 12.034 12.4482ZM9.53033 9.94457C8.803 9.76953 8.2305 9.19703 8.05546 8.4697L9.53033 9.94457ZM8.64835 4.23416L10.4697 6.05549C11.197 6.23053 11.7695 6.80303 11.9445 7.53036L13.7659 9.35168C13.9174 8.92948 14 8.4744 14 8.00003C14 5.79089 12.2091 4.00003 10 4.00003C9.52563 4.00003 9.07055 4.0826 8.64835 4.23416ZM15.1409 10.6331L15.0866 10.6724L16.5173 12.1031C18.4822 10.6371 20 8.96755 20 8.00003C20 6.00003 13.5145 1.00003 10 1.00003C8.99084 1.00003 7.73673 1.41227 6.46155 2.04736L7.96605 3.55186C8.87001 3.16051 9.56501 3.00003 10 3.00003C10.4642 3.00003 11.2246 3.1828 12.219 3.6339C13.1765 4.06824 14.1997 4.6819 15.1409 5.36701C16.0863 6.05514 16.8899 6.7724 17.4332 7.38708C17.6536 7.63642 17.8078 7.84272 17.908 8.00003C17.8078 8.15735 17.6536 8.36364 17.4332 8.61298C16.8899 9.22766 16.0863 9.94492 15.1409 10.6331ZM18.028 7.7793C18.0289 7.77695 18.0292 7.7758 18.0291 7.77582C18.029 7.77585 18.028 7.77848 18.0264 7.78363C18.027 7.7819 18.0276 7.78045 18.028 7.7793ZM1.97088 7.77582C1.971 7.77585 1.97203 7.77848 1.97364 7.78364C1.97158 7.77837 1.97077 7.77579 1.97088 7.77582ZM1.97088 8.22424C1.97077 8.22427 1.97158 8.22169 1.97364 8.21642C1.97203 8.22158 1.971 8.22421 1.97088 8.22424ZM18.0286 8.22255L18.0264 8.21642L18.0285 8.22282L18.0291 8.22424C18.0291 8.22424 18.0291 8.22417 18.0291 8.22403L18.0286 8.22255Z" fill="#8C8E93"/>
<path fill-rule="evenodd" clip-rule="evenodd" d="M3.20711 0.792922L2.5 0.0858154L1.08579 1.50003L1.79289 2.20714L3.4827 3.89694C1.51776 5.36291 0 7.03251 0 8.00003C0 10 6.48546 15 10 15C11.0092 15 12.2633 14.5878 13.5385 13.9527L14.7929 15.2071L15.5 15.9142L16.9142 14.5L16.2071 13.7929L3.20711 0.792922ZM12.034 12.4482L11.3517 11.7659C10.9294 11.9175 10.4744 12 10 12C7.79086 12 6 10.2092 6 8.00003C6 7.52566 6.08257 7.07058 6.23413 6.64838L4.91338 5.32762C4.89525 5.34072 4.87714 5.35385 4.85907 5.36701C3.91373 6.05514 3.11011 6.7724 2.56679 7.38708C2.3464 7.63642 2.19217 7.84271 2.09204 8.00003C2.19217 8.15734 2.3464 8.36364 2.56679 8.61298C3.11011 9.22766 3.91373 9.94492 4.85907 10.6331C5.80027 11.3182 6.82352 11.9318 7.78101 12.3662C8.77544 12.8173 9.53578 13 10 13C10.435 13 11.13 12.8395 12.034 12.4482ZM9.53033 9.94457C8.803 9.76953 8.2305 9.19703 8.05546 8.4697L9.53033 9.94457ZM8.64835 4.23416L10.4697 6.05549C11.197 6.23053 11.7695 6.80303 11.9445 7.53036L13.7659 9.35168C13.9174 8.92948 14 8.4744 14 8.00003C14 5.79089 12.2091 4.00003 10 4.00003C9.52563 4.00003 9.07055 4.0826 8.64835 4.23416ZM15.1409 10.6331L15.0866 10.6724L16.5173 12.1031C18.4822 10.6371 20 8.96755 20 8.00003C20 6.00003 13.5145 1.00003 10 1.00003C8.99084 1.00003 7.73673 1.41227 6.46155 2.04736L7.96605 3.55186C8.87001 3.16051 9.56501 3.00003 10 3.00003C10.4642 3.00003 11.2246 3.1828 12.219 3.6339C13.1765 4.06824 14.1997 4.6819 15.1409 5.36701C16.0863 6.05514 16.8899 6.7724 17.4332 7.38708C17.6536 7.63642 17.8078 7.84272 17.908 8.00003C17.8078 8.15735 17.6536 8.36364 17.4332 8.61298C16.8899 9.22766 16.0863 9.94492 15.1409 10.6331ZM18.028 7.7793C18.0289 7.77695 18.0292 7.7758 18.0291 7.77582C18.029 7.77585 18.028 7.77848 18.0264 7.78363C18.027 7.7819 18.0276 7.78045 18.028 7.7793ZM1.97088 7.77582C1.971 7.77585 1.97203 7.77848 1.97364 7.78364C1.97158 7.77837 1.97077 7.77579 1.97088 7.77582ZM1.97088 8.22424C1.97077 8.22427 1.97158 8.22169 1.97364 8.21642C1.97203 8.22158 1.971 8.22421 1.97088 8.22424ZM18.0286 8.22255L18.0264 8.21642L18.0285 8.22282L18.0291 8.22424C18.0291 8.22424 18.0291 8.22417 18.0291 8.22403L18.0286 8.22255Z" fill="#8C8E93"/>
</svg>
